<svg xmlns="http://www.w3.org/2000/svg" version="1.1" xmlns:xlink="http://www.w3.org/1999/xlink" xmlns:svgjs="http://svgjs.com/svgjs" width="1440" height="560" preserveAspectRatio="none" viewBox="0 0 1440 560"><g mask="url(&quot;#SvgjsMask1019&quot;)" fill="none"><rect width="1440" height="560" x="0" y="0" fill="#0e2a47"></rect><path d="M 0,20 C 48,64.2 144,226 240,241 C 336,256 384,111.2 480,95 C 576,78.8 624,172.4 720,160 C 816,147.6 864,23 960,33 C 1056,43 1104,196.8 1200,210 C 1296,223.2 1392,121.2 1440,99L1440 560L0 560z" fill="#184a7e"></path><path d="M 0,414 C 96,428.6 288,511.6 480,487 C 672,462.4 768,297.2 960,291 C 1152,284.8 1344,423 1440,456L1440 560L0 560z" fill="#2264ab"></path></g><defs><mask id="SvgjsMask1019"><rect width="1440" height="560" fill="#ffffff"></rect></mask></defs></svg>